<svg width="32" height="32" viewBox="0 0 32 32" fill="none" xmlns="http://www.w3.org/2000/svg">
<path fill-rule="evenodd" clip-rule="evenodd" d="M21.6573 10.3427C20.5892 9.27526 19.2408 8.53191 17.7681 8.19858C16.2953 7.86525 14.7582 7.95555 13.3346 8.45905C11.911 8.96254 10.659 9.85867 9.72324 11.0438C8.78751 12.229 8.20631 13.6548 8.04684 15.1564C7.88737 16.6579 8.15613 18.174 8.82205 19.5292C9.48798 20.8845 10.5239 22.0236 11.81 22.8149C13.0961 23.6062 14.5799 24.0173 16.0898 24.0008C17.5997 23.9842 19.0742 23.5406 20.3426 22.7214C20.4894 22.6207 20.6549 22.5504 20.8294 22.5147C21.0038 22.4791 21.1836 22.4787 21.3582 22.5136C21.5328 22.5485 21.6986 22.6181 21.8458 22.7181C21.9931 22.8182 22.1188 22.9467 22.2156 23.0961C22.3124 23.2455 22.3783 23.4128 22.4094 23.5881C22.4405 23.7634 22.4362 23.9432 22.3967 24.1168C22.3572 24.2904 22.2834 24.4543 22.1795 24.5989C22.0756 24.7435 21.9438 24.8658 21.7919 24.9587C19.8009 26.2462 17.4376 26.8336 15.0755 26.6281C12.7134 26.4226 10.487 25.4359 8.7482 23.824C7.00939 22.212 5.85722 20.0666 5.47372 17.7268C5.09021 15.387 5.49724 12.9861 6.6305 10.9034C7.76375 8.82067 9.55863 7.17492 11.7316 6.22612C13.9045 5.27732 16.3316 5.07956 18.6295 5.66408C20.9274 6.2486 22.965 7.58208 24.4205 9.45385C25.8759 11.3256 26.6663 13.629 26.6666 16C26.6668 16.743 26.4602 17.4713 26.0697 18.1034C25.6793 18.7355 25.1205 19.2464 24.4561 19.5788C23.7916 19.9111 23.0477 20.0519 22.3077 19.9852C21.5677 19.9186 20.861 19.6471 20.2666 19.2014C19.5068 20.2144 18.4113 20.9241 17.1761 21.2034C15.941 21.4827 14.6467 21.3133 13.525 20.7257C12.4033 20.138 11.5272 19.1704 11.0536 17.996C10.58 16.8215 10.5398 15.5169 10.9401 14.3154C11.3404 13.114 12.1551 12.0943 13.2385 11.4386C14.3219 10.7829 15.6032 10.5341 16.8533 10.7367C18.1033 10.9393 19.2404 11.5801 20.0612 12.5444C20.882 13.5088 21.3329 14.7337 21.3333 16C21.3333 16.3536 21.4737 16.6928 21.7238 16.9428C21.9738 17.1929 22.313 17.3334 22.6666 17.3334C23.0202 17.3334 23.3594 17.1929 23.6094 16.9428C23.8595 16.6928 23.9999 16.3536 23.9999 16C23.9999 13.9507 23.2186 11.9067 21.6573 10.3427ZM18.6666 16C18.6666 15.2928 18.3856 14.6145 17.8856 14.1144C17.3855 13.6143 16.7072 13.3334 15.9999 13.3334C15.2927 13.3334 14.6144 13.6143 14.1143 14.1144C13.6142 14.6145 13.3333 15.2928 13.3333 16C13.3333 16.7073 13.6142 17.3855 14.1143 17.8856C14.6144 18.3857 15.2927 18.6667 15.9999 18.6667C16.7072 18.6667 17.3855 18.3857 17.8856 17.8856C18.3856 17.3855 18.6666 16.7073 18.6666 16Z" fill="#F8C51B"/>
</svg>
